<?xml version="1.0" encoding="UTF-8" standalone="no"?>
<!-- Uploaded to: SVG Repo, www.svgrepo.com, Generator: SVG Repo Mixer Tools -->
<svg xmlns:dc="http://purl.org/dc/elements/1.1/"
     xmlns:cc="http://creativecommons.org/ns#"
     xmlns:rdf="http://www.w3.org/1999/02/22-rdf-syntax-ns#"
     xmlns:svg="http://www.w3.org/2000/svg"
     xmlns="http://www.w3.org/2000/svg"
     xmlns:xlink="http://www.w3.org/1999/xlink"
     width="128" height="128" version="1.1">
    <title>OpenID logo</title>
    <desc>This is shape (source) for Clarity vector icon theme for gtk</desc>
    <metadata>
        <rdf:RDF>
            <cc:Work rdf:about="">
                <dc:title>OpenID logo</dc:title>
                <dc:description>This is shape (source) for Clarity vector icon theme for gtk</dc:description>
                <dc:creator>
                    <cc:Agent>
                        <dc:title>Jakub Jankiewicz</dc:title>
                    </cc:Agent>
                </dc:creator>
                <dc:rights>
                    <cc:Agent>
                        <dc:title>Jakub Jankiewicz</dc:title>
                    </cc:Agent>
                </dc:rights>
                <dc:date>2010</dc:date>
                <dc:format>image/svg+xml</dc:format>
                <dc:type rdf:resource="http://purl.org/dc/dcmitype/StillImage" />
                <cc:license rdf:resource="http://creativecommons.org/licenses/by-sa/3.0/" />
             </cc:Work>
        </rdf:RDF>
    </metadata>
    <path d="m 75.180374,15.11293 -15.99577,7.797938 0,79.945522 C 40.931432,100.568 27.193065,90.619126 27.193065,78.662788 c 0,-11.334002 12.358733,-20.879977 29.192279,-23.793706 l 0,-10.163979 C 30.637155,47.81728 11.197296,61.839238 11.197296,78.662788 c 0,17.429891 20.856984,31.825422 47.987308,34.224282 l 15.99577,-7.53134 0,-90.2428 z m 2.79926,29.592173 0,10.163979 c 6.261409,1.083679 11.913385,3.061436 16.528961,5.731817 l -8.664375,4.898704 30.95849,6.731553 -2.23275,-22.927269 -8.23115,4.632108 C 98.692362,49.310409 88.899095,46.024898 77.979634,44.705103 z"/>
</svg>